<?xml version="1.0" standalone="no"?>
<!DOCTYPE svg PUBLIC "-//W3C//DTD SVG 20010904//EN"
 "http://www.w3.org/TR/2001/REC-SVG-20010904/DTD/svg10.dtd">
<svg version="1.0" xmlns="http://www.w3.org/2000/svg"
 width="412.000000pt" height="412.000000pt" viewBox="0 0 412.000000 412.000000"
 preserveAspectRatio="xMidYMid meet">
<metadata>
Created by potrace 1.11, written by Peter Selinger 2001-2013
</metadata>
<g transform="translate(0.000000,412.000000) scale(0.100000,-0.100000)"
fill="#000000" stroke="none">
<path d="M1475 2471 c-66 -27 -93 -50 -110 -95 -19 -49 -15 -93 12 -143 20
-37 105 -78 183 -88 86 -10 109 -17 135 -41 14 -12 25 -32 25 -44 0 -100 -192
-123 -277 -34 l-31 34 -41 -22 c-23 -12 -41 -25 -41 -28 0 -16 48 -76 76 -95
76 -51 257 -55 332 -7 64 40 91 91 87 164 -3 63 -31 104 -90 133 -47 23 -71
29 -153 39 -106 14 -149 61 -104 116 37 46 172 41 225 -8 l22 -21 42 21 c46
23 46 32 -1 79 -53 53 -208 74 -291 40z"/>
<path d="M5 2423 l1 -48 92 -3 92 -3 0 -239 0 -240 55 0 55 0 0 240 0 240 93
0 93 0 -1 48 -1 47 -240 3 -240 2 1 -47z"/>
<path d="M3110 2180 l0 -290 50 0 50 0 0 91 0 92 23 -25 c12 -14 48 -55 80
-91 l58 -67 60 0 c34 0 59 4 57 9 -1 5 -43 53 -93 106 -49 54 -89 100 -89 102
1 3 26 33 56 66 31 34 67 77 82 95 l28 32 -64 0 -63 -1 -38 -47 c-20 -26 -51
-62 -67 -81 l-30 -34 0 167 0 166 -50 0 -50 0 0 -290z"/>
<path d="M1968 2402 c-26 -3 -28 -6 -28 -53 l0 -49 -38 0 -37 0 0 -42 c0 -42
1 -43 38 -46 l37 -3 0 -106 c0 -162 37 -216 148 -211 75 2 87 13 67 60 -14 34
-18 37 -45 31 -22 -4 -36 0 -50 12 -17 16 -20 31 -20 117 l0 98 55 0 c30 0 56
5 56 10 1 6 1 19 1 30 0 50 0 50 -57 50 l-55 0 0 55 c0 60 6 56 -72 47z"/>
<path d="M3550 2265 l0 -125 26 0 c18 0 25 5 23 18 -4 48 -1 52 52 52 43 0 55
5 80 29 25 25 28 35 24 68 -7 62 -41 83 -131 83 l-74 0 0 -125z m151 64 c25
-40 -4 -79 -61 -79 -41 0 -49 13 -42 71 3 23 7 25 49 24 26 -1 49 -8 54 -16z"/>
<path d="M3779 2317 c-1 -3 -1 -138 0 -159 1 -11 9 -18 21 -18 18 0 20 7 20
60 0 64 16 84 57 74 24 -7 41 25 21 38 -18 11 -56 10 -63 -2 -4 -6 -15 -6 -30
0 -14 5 -25 8 -26 7z"/>
<path d="M3956 2294 c-43 -44 -33 -113 21 -142 93 -50 178 64 104 139 -39 38
-88 40 -125 3z m90 -22 c34 -23 15 -92 -26 -92 -24 0 -50 26 -50 50 0 36 46
62 76 42z"/>
<path d="M545 2295 c-100 -39 -147 -143 -120 -269 12 -58 77 -120 144 -136 61
-14 135 -8 185 15 58 28 63 40 28 76 -29 30 -31 30 -56 14 -34 -22 -113 -27
-148 -9 -26 13 -58 50 -58 66 0 5 73 8 161 8 l162 0 -6 65 c-7 77 -24 110 -78
148 -49 35 -151 46 -214 22z m138 -84 c13 -5 31 -17 40 -26 35 -34 21 -41 -88
-42 -109 -1 -119 3 -91 39 25 34 91 47 139 29z"/>
<path d="M2331 2290 c-52 -24 -77 -50 -102 -108 -45 -104 -6 -227 86 -275 55
-28 147 -32 200 -8 136 60 168 241 61 347 -64 65 -160 82 -245 44z m166 -102
c50 -47 50 -148 -1 -189 -99 -81 -227 36 -170 156 29 62 121 80 171 33z"/>
<path d="M2820 2297 c-46 -15 -106 -77 -119 -124 -62 -224 153 -374 349 -244
12 9 9 16 -19 45 -33 34 -35 34 -62 20 -37 -19 -94 -18 -129 3 -34 20 -55 78
-46 126 7 37 53 86 84 88 41 4 77 -3 92 -16 15 -13 20 -11 51 21 l34 35 -25
19 c-49 39 -138 50 -210 27z"/>
<path d="M897 2273 c10 -16 39 -58 65 -96 27 -37 48 -72 48 -78 0 -6 -31 -56
-70 -110 l-70 -99 63 0 63 0 38 60 c21 33 42 63 46 65 4 3 27 -24 50 -60 l42
-65 60 0 c44 0 57 3 52 13 -4 6 -35 53 -69 103 l-63 91 39 59 c22 32 50 76 64
96 14 21 25 40 25 43 0 3 -27 5 -59 5 l-59 0 -37 -66 c-42 -74 -45 -74 -90 10
l-30 56 -63 0 -62 0 17 -27z"/>
<path d="M181 1763 c-3 -24 -4 -50 -2 -83 1 -17 7 -20 39 -18 36 1 36 1 5 5
-31 4 -32 5 -36 61 -2 31 -5 47 -6 35z"/>
<path d="M680 1720 c0 -35 2 -61 4 -59 8 8 10 108 3 116 -4 3 -7 -22 -7 -57z"/>
<path d="M821 1763 c-1 -16 -8 -23 -27 -25 -60 -7 -56 -73 4 -73 25 -1 31 4
34 25 2 14 0 41 -3 60 -4 20 -7 26 -8 13z m-4 -49 c3 -8 -2 -23 -11 -32 -14
-15 -18 -15 -31 -1 -9 9 -13 23 -9 32 8 21 43 22 51 1z"/>
<path d="M1651 1757 c-1 -17 -5 -26 -12 -22 -5 4 -21 4 -35 1 -27 -7 -34 -46
-10 -65 22 -18 66 -10 67 14 0 11 2 27 3 35 2 8 -1 26 -5 40 l-7 25 -1 -28z
m-5 -42 c7 -18 -12 -45 -32 -45 -15 0 -28 35 -19 50 9 15 45 12 51 -5z"/>
<path d="M1682 1755 c0 -16 2 -22 5 -12 2 9 2 23 0 30 -3 6 -5 -1 -5 -18z"/>
<path d="M2242 1768 c-8 -10 -5 -13 13 -13 14 0 21 5 18 13 -3 6 -9 12 -13 12
-4 0 -12 -6 -18 -12z"/>
<path d="M1271 1758 c0 -10 -7 -18 -13 -18 -8 0 -9 -3 -3 -8 6 -4 11 -16 13
-27 6 -38 11 -45 37 -43 22 2 25 7 25 40 0 34 -3 38 -24 38 -15 0 -26 7 -29
18 -4 16 -5 16 -6 0z m44 -55 c-2 -41 -35 -45 -35 -4 0 23 5 31 18 31 14 0 19
-7 17 -27z"/>
<path d="M1911 1758 c0 -9 -7 -19 -13 -21 -10 -4 -10 -6 0 -6 7 -1 12 -15 12
-36 0 -30 3 -35 23 -34 16 1 18 2 5 6 -12 3 -18 14 -18 33 0 19 6 30 18 33 15
4 15 5 0 6 -9 0 -19 9 -21 19 -4 15 -5 15 -6 0z"/>
<path d="M2321 1758 c0 -10 -7 -18 -13 -18 -10 0 -10 -2 -1 -8 6 -4 13 -21 15
-37 2 -20 9 -31 23 -33 19 -4 19 -3 2 10 -21 16 -19 50 3 60 13 5 12 7 -2 7
-9 1 -19 9 -21 19 -4 16 -5 16 -6 0z"/>
<path d="M266 1724 c-13 -33 -6 -54 19 -60 31 -8 55 10 55 41 0 35 -62 51 -74
19z m53 -3 c19 -12 4 -51 -19 -51 -10 0 -21 9 -25 20 -11 34 12 51 44 31z"/>
<path d="M354 1715 c-7 -29 8 -52 38 -57 12 -2 23 -9 26 -15 6 -19 -28 -28
-50 -14 -16 10 -19 10 -16 -1 3 -7 19 -13 39 -13 l34 0 1 63 1 62 -33 0 c-28
0 -35 -5 -40 -25z m63 -1 c3 -8 -1 -23 -10 -31 -26 -26 -50 3 -38 45 3 10 43
-1 48 -14z"/>
<path d="M444 1705 c3 -47 16 -57 16 -12 0 20 -4 38 -9 41 -4 3 -8 -10 -7 -29z"/>
<path d="M482 1728 c-33 -33 9 -80 54 -60 16 8 24 8 27 -1 2 -6 4 7 5 31 1 23
-2 42 -7 42 -4 0 -7 -12 -5 -26 3 -32 -41 -54 -63 -31 -21 20 -5 50 23 44 13
-2 24 0 24 4 0 13 -44 11 -58 -3z"/>
<path d="M588 1715 c-8 -19 -8 -28 2 -40 13 -16 55 -21 64 -6 3 4 -5 6 -18 4
-13 -3 -27 0 -30 6 -5 7 3 11 22 11 36 0 44 8 31 31 -15 28 -57 24 -71 -6z
m60 -2 c2 -9 -7 -13 -28 -13 -28 0 -31 2 -20 15 15 18 41 16 48 -2z"/>
<path d="M848 1715 c-19 -42 23 -72 62 -44 12 8 10 9 -7 4 -13 -3 -31 -2 -40
4 -15 9 -12 10 18 11 43 0 51 7 38 31 -15 28 -57 24 -71 -6z m60 -2 c2 -8 -6
-13 -22 -13 -25 0 -33 10 -19 24 10 10 36 3 41 -11z"/>
<path d="M994 1715 c-7 -29 10 -55 36 -55 22 0 30 -9 23 -26 -6 -17 -35 -18
-52 -1 -11 10 -13 9 -9 -3 3 -10 17 -15 39 -15 31 0 34 3 35 30 2 47 4 51 15
33 11 -20 36 -23 59 -8 11 7 6 8 -17 4 -22 -4 -33 -3 -33 5 0 6 14 11 31 11
26 0 30 3 27 23 -2 17 -10 22 -32 22 -17 0 -31 -6 -34 -15 -5 -13 -3 -13 11
-1 18 14 47 9 47 -9 0 -19 -59 -11 -70 10 -7 13 -21 20 -40 20 -23 0 -31 -5
-36 -25z m60 0 c7 -20 -3 -45 -19 -45 -19 0 -36 25 -29 44 8 20 40 21 48 1z"/>
<path d="M1177 1733 c-14 -13 -6 -24 24 -35 22 -8 28 -13 20 -21 -9 -9 -17 -8
-32 2 -18 10 -20 10 -17 -1 7 -20 62 -17 66 5 3 12 -5 19 -27 23 -40 8 -41 28
-2 22 17 -2 28 -1 25 4 -6 10 -48 11 -57 1z"/>
<path d="M1354 1716 c-12 -49 43 -76 70 -33 15 24 -3 51 -37 55 -21 3 -28 -2
-33 -22z m60 -2 c7 -19 -10 -44 -30 -44 -15 0 -28 35 -19 50 10 16 42 12 49
-6z"/>
<path d="M1448 1704 c-2 -19 0 -37 4 -40 4 -3 8 9 8 26 0 58 48 49 51 -10 1
-18 3 -20 6 -7 3 10 2 29 -1 43 -5 18 -13 24 -35 24 -26 0 -29 -4 -33 -36z"/>
<path d="M1708 1715 c-19 -42 23 -72 62 -44 12 8 10 9 -7 4 -13 -3 -31 -2 -40
4 -14 8 -10 10 25 11 46 0 47 2 32 31 -16 28 -58 25 -72 -6z m60 -2 c2 -8 -6
-13 -22 -13 -25 0 -33 10 -19 24 10 10 36 3 41 -11z"/>
<path d="M1808 1717 c-3 -13 -1 -32 3 -43 5 -15 8 -11 10 16 3 27 9 35 24 35
15 0 21 -8 25 -35 5 -33 6 -33 11 -9 7 34 -11 59 -43 59 -19 0 -27 -6 -30 -23z"/>
<path d="M1960 1698 c0 -46 7 -48 13 -4 2 17 12 33 23 37 16 6 14 8 -8 8 -26
1 -28 -2 -28 -41z"/>
<path d="M2020 1725 c-22 -27 -8 -40 36 -35 38 5 41 7 33 28 -10 26 -50 30
-69 7z m58 -12 c2 -8 -6 -13 -22 -13 -25 0 -33 10 -19 24 10 10 36 3 41 -11z"/>
<path d="M2118 1706 c-2 -17 0 -44 3 -61 6 -29 7 -29 8 -4 1 22 5 25 24 22 28
-6 50 18 45 49 -2 19 -9 23 -40 24 -33 1 -36 -1 -40 -30z m67 3 c6 -19 -7 -39
-25 -39 -3 0 -11 4 -19 9 -19 12 -4 51 19 51 10 0 22 -10 25 -21z"/>
<path d="M2222 1728 c-28 -28 -3 -72 39 -66 30 4 47 33 33 56 -14 21 -55 27
-72 10z m54 -6 c18 -12 12 -41 -9 -48 -24 -8 -50 17 -41 39 6 18 31 22 50 9z"/>
<path d="M2419 1720 c-1 -8 -1 -32 0 -54 0 -44 11 -64 11 -22 0 17 4 25 11 21
5 -4 21 -4 35 -1 25 7 32 37 16 64 -12 18 -72 12 -73 -8z m66 -10 c7 -23 -1
-40 -19 -40 -20 0 -39 27 -32 45 8 22 44 18 51 -5z"/>
<path d="M2518 1717 c-3 -13 -1 -32 3 -43 6 -15 8 -12 8 14 1 24 7 35 24 42
21 9 21 9 -4 9 -20 1 -28 -5 -31 -22z"/>
<path d="M2593 1734 c-7 -3 -13 -16 -13 -29 0 -44 50 -60 74 -22 20 32 -22 67
-61 51z m46 -18 c13 -16 4 -46 -14 -46 -19 0 -38 28 -31 45 7 19 30 19 45 1z"/>
<path d="M2030 1668 c0 -11 48 -10 54 1 3 4 -8 8 -24 7 -17 -1 -30 -4 -30 -8z"/>
</g>
</svg>
